<svg width="281" height="281" viewBox="0 0 281 281" fill="none" xmlns="http://www.w3.org/2000/svg">
<rect width="281" height="281" rx="65" fill="#D4199D"/>
<g filter="url(#filter0_d_1013_383)">
<path d="M136.152 72.3991C136.152 57.9674 124.453 46.2676 110.021 46.2676C95.5896 46.2676 83.8903 57.9668 83.8903 72.3986V105.807H136.152C136.152 92.6294 136.152 82.7332 136.152 72.3991Z" fill="#FFF5F2"/>
<path d="M131.522 75.0446C131.522 67.9201 125.747 62.1445 118.622 62.1445C111.498 62.1445 105.722 67.9201 105.722 75.0446V92.9064C105.722 100.031 111.498 105.806 118.622 105.806C125.747 105.806 131.522 100.031 131.522 92.9064V75.0446Z" fill="url(#paint0_linear_1013_383)"/>
<rect width="17.8617" height="11.9078" rx="5.9539" transform="matrix(-1 0 0 1 127.553 89.9297)" fill="#FFF5F2"/>
</g>
<g filter="url(#filter1_d_1013_383)">
<path d="M98.0918 34.6641C107.033 30.7913 113.211 30.6703 122.43 34.6641" stroke="#2C1C1C" stroke-width="14" stroke-linecap="round"/>
</g>
<g filter="url(#filter2_d_1013_383)">
<path d="M145.415 72.3991C145.415 57.9674 157.114 46.2676 171.546 46.2676C185.978 46.2676 197.677 57.9668 197.677 72.3986V105.807H145.415C145.415 92.6294 145.415 82.7332 145.415 72.3991Z" fill="#FFF5F2"/>
<path d="M150.046 75.0446C150.046 67.9201 155.821 62.1445 162.946 62.1445C170.071 62.1445 175.846 67.9201 175.846 75.0446V92.9064C175.846 100.031 170.071 105.806 162.946 105.806C155.821 105.806 150.046 100.031 150.046 92.9064V75.0446Z" fill="url(#paint1_linear_1013_383)"/>
<rect x="154.015" y="89.9297" width="17.8617" height="11.9078" rx="5.9539" fill="#FFF5F2"/>
</g>
<g filter="url(#filter3_d_1013_383)">
<path d="M183.646 34.6641C174.705 30.7913 168.526 30.6703 159.307 34.6641" stroke="#2C1C1C" stroke-width="14" stroke-linecap="round"/>
</g>
<g filter="url(#filter4_d_1013_383)">
<path d="M51.627 164.99C51.627 132.116 78.2764 105.467 111.15 105.467H170.587C203.46 105.467 230.11 132.116 230.11 164.99C230.11 211.953 192.039 250.023 145.077 250.023H136.66C89.6976 250.023 51.627 211.953 51.627 164.99Z" fill="url(#paint2_linear_1013_383)"/>
</g>
<path d="M117.268 192.361C117.268 189.991 119.189 188.07 121.559 188.07H160.179C162.548 188.07 164.47 189.992 164.47 192.361V211.671C164.47 224.706 153.903 235.272 140.869 235.272C127.834 235.272 117.268 224.706 117.268 211.671V192.361Z" fill="#2C1C1C"/>
<path d="M156.357 215.851C156.357 211.914 153.165 208.722 149.228 208.722H131.773C127.835 208.722 124.644 211.914 124.644 215.851C124.644 223.726 131.027 230.11 138.902 230.11H142.098C149.973 230.11 156.357 223.726 156.357 215.851Z" fill="url(#paint3_linear_1013_383)"/>
<path d="M144.784 109.807H227.416V143.845C227.416 166.664 208.918 185.161 186.1 185.161C163.282 185.161 144.784 166.664 144.784 143.845V109.807Z" fill="#2C1C1C" stroke="#2C1C1C" stroke-width="8"/>
<path d="M54.1523 109.807H136.784V143.845C136.784 166.664 118.286 185.161 95.4681 185.161C72.6501 185.161 54.1523 166.664 54.1523 143.845V109.807Z" fill="#2C1C1C" stroke="#2C1C1C" stroke-width="8"/>
<mask id="path-15-inside-1_1013_383" fill="white">
<path fill-rule="evenodd" clip-rule="evenodd" d="M115.131 184.998C109.352 187.671 102.915 189.162 96.1298 189.162C83.9794 189.162 72.9459 184.38 64.8086 176.595L84.7782 105.808H137.471L115.131 184.998Z"/>
</mask>
<path fill-rule="evenodd" clip-rule="evenodd" d="M115.131 184.998C109.352 187.671 102.915 189.162 96.1298 189.162C83.9794 189.162 72.9459 184.38 64.8086 176.595L84.7782 105.808H137.471L115.131 184.998Z" fill="url(#paint4_linear_1013_383)"/>
<path d="M115.131 184.998L118.489 192.259L121.831 190.713L122.831 187.17L115.131 184.998ZM64.8086 176.595L57.1091 174.423L55.8034 179.052L59.2784 182.376L64.8086 176.595ZM84.7782 105.808V97.8076H78.7228L77.0787 103.636L84.7782 105.808ZM137.471 105.808L145.171 107.98L148.04 97.8076H137.471V105.808ZM111.773 177.737C107.025 179.933 101.732 181.162 96.1298 181.162V197.162C104.098 197.162 111.679 195.409 118.489 192.259L111.773 177.737ZM96.1298 181.162C86.121 181.162 77.047 177.232 70.3388 170.815L59.2784 182.376C68.8448 191.528 81.8378 197.162 96.1298 197.162V181.162ZM77.0787 103.636L57.1091 174.423L72.5081 178.768L92.4777 107.98L77.0787 103.636ZM137.471 97.8076H84.7782V113.808H137.471V97.8076ZM122.831 187.17L145.171 107.98L129.772 103.636L107.432 182.826L122.831 187.17Z" fill="#2C1C1C" mask="url(#path-15-inside-1_1013_383)"/>
<defs>
<filter id="filter0_d_1013_383" x="73.8906" y="46.2676" width="72.2617" height="79.5391" filterUnits="userSpaceOnUse" color-interpolation-filters="sRGB">
<feFlood flood-opacity="0" result="BackgroundImageFix"/>
<feColorMatrix in="SourceAlpha" type="matrix" values="0 0 0 0 0 0 0 0 0 0 0 0 0 0 0 0 0 0 127 0" result="hardAlpha"/>
<feOffset dy="10"/>
<feGaussianBlur stdDeviation="5"/>
<feComposite in2="hardAlpha" operator="out"/>
<feColorMatrix type="matrix" values="0 0 0 0 0 0 0 0 0 0 0 0 0 0 0 0 0 0 0.25 0"/>
<feBlend mode="normal" in2="BackgroundImageFix" result="effect1_dropShadow_1013_383"/>
<feBlend mode="normal" in="SourceGraphic" in2="effect1_dropShadow_1013_383" result="shape"/>
</filter>
<filter id="filter1_d_1013_383" x="81.0898" y="24.7139" width="58.3428" height="36.9521" filterUnits="userSpaceOnUse" color-interpolation-filters="sRGB">
<feFlood flood-opacity="0" result="BackgroundImageFix"/>
<feColorMatrix in="SourceAlpha" type="matrix" values="0 0 0 0 0 0 0 0 0 0 0 0 0 0 0 0 0 0 127 0" result="hardAlpha"/>
<feOffset dy="10"/>
<feGaussianBlur stdDeviation="5"/>
<feComposite in2="hardAlpha" operator="out"/>
<feColorMatrix type="matrix" values="0 0 0 0 0 0 0 0 0 0 0 0 0 0 0 0 0 0 0.25 0"/>
<feBlend mode="normal" in2="BackgroundImageFix" result="effect1_dropShadow_1013_383"/>
<feBlend mode="normal" in="SourceGraphic" in2="effect1_dropShadow_1013_383" result="shape"/>
</filter>
<filter id="filter2_d_1013_383" x="135.415" y="46.2676" width="72.2617" height="79.5391" filterUnits="userSpaceOnUse" color-interpolation-filters="sRGB">
<feFlood flood-opacity="0" result="BackgroundImageFix"/>
<feColorMatrix in="SourceAlpha" type="matrix" values="0 0 0 0 0 0 0 0 0 0 0 0 0 0 0 0 0 0 127 0" result="hardAlpha"/>
<feOffset dy="10"/>
<feGaussianBlur stdDeviation="5"/>
<feComposite in2="hardAlpha" operator="out"/>
<feColorMatrix type="matrix" values="0 0 0 0 0 0 0 0 0 0 0 0 0 0 0 0 0 0 0.25 0"/>
<feBlend mode="normal" in2="BackgroundImageFix" result="effect1_dropShadow_1013_383"/>
<feBlend mode="normal" in="SourceGraphic" in2="effect1_dropShadow_1013_383" result="shape"/>
</filter>
<filter id="filter3_d_1013_383" x="142.305" y="24.7139" width="58.3428" height="36.9521" filterUnits="userSpaceOnUse" color-interpolation-filters="sRGB">
<feFlood flood-opacity="0" result="BackgroundImageFix"/>
<feColorMatrix in="SourceAlpha" type="matrix" values="0 0 0 0 0 0 0 0 0 0 0 0 0 0 0 0 0 0 127 0" result="hardAlpha"/>
<feOffset dy="10"/>
<feGaussianBlur stdDeviation="5"/>
<feComposite in2="hardAlpha" operator="out"/>
<feColorMatrix type="matrix" values="0 0 0 0 0 0 0 0 0 0 0 0 0 0 0 0 0 0 0.25 0"/>
<feBlend mode="normal" in2="BackgroundImageFix" result="effect1_dropShadow_1013_383"/>
<feBlend mode="normal" in="SourceGraphic" in2="effect1_dropShadow_1013_383" result="shape"/>
</filter>
<filter id="filter4_d_1013_383" x="41.627" y="105.467" width="198.483" height="164.557" filterUnits="userSpaceOnUse" color-interpolation-filters="sRGB">
<feFlood flood-opacity="0" result="BackgroundImageFix"/>
<feColorMatrix in="SourceAlpha" type="matrix" values="0 0 0 0 0 0 0 0 0 0 0 0 0 0 0 0 0 0 127 0" result="hardAlpha"/>
<feOffset dy="10"/>
<feGaussianBlur stdDeviation="5"/>
<feComposite in2="hardAlpha" operator="out"/>
<feColorMatrix type="matrix" values="0 0 0 0 0 0 0 0 0 0 0 0 0 0 0 0 0 0 0.25 0"/>
<feBlend mode="normal" in2="BackgroundImageFix" result="effect1_dropShadow_1013_383"/>
<feBlend mode="normal" in="SourceGraphic" in2="effect1_dropShadow_1013_383" result="shape"/>
</filter>
<linearGradient id="paint0_linear_1013_383" x1="118.622" y1="62.1445" x2="118.622" y2="105.806" gradientUnits="userSpaceOnUse">
<stop offset="0.22998" stop-color="#2C1C1C"/>
</linearGradient>
<linearGradient id="paint1_linear_1013_383" x1="162.946" y1="62.1445" x2="162.946" y2="105.806" gradientUnits="userSpaceOnUse">
<stop offset="0.22998" stop-color="#2C1C1C"/>
</linearGradient>
<linearGradient id="paint2_linear_1013_383" x1="140.868" y1="105.467" x2="140.868" y2="250.023" gradientUnits="userSpaceOnUse">
<stop offset="0.670078" stop-color="#FF7513"/>
</linearGradient>
<linearGradient id="paint3_linear_1013_383" x1="140.5" y1="208.722" x2="140.5" y2="230.11" gradientUnits="userSpaceOnUse">
<stop offset="0.165078" stop-color="#C2572C"/>
</linearGradient>
<linearGradient id="paint4_linear_1013_383" x1="101.14" y1="105.808" x2="101.14" y2="189.162" gradientUnits="userSpaceOnUse">
<stop offset="0.230039" stop-color="#F0E2DD"/>
</linearGradient>
</defs>
</svg>
