<svg width="48" height="49" viewBox="0 0 48 49" fill="none" xmlns="http://www.w3.org/2000/svg">
<path d="M26.4672 0.863037C29.1671 0.870237 30.5374 0.884636 31.7206 0.918234L32.1861 0.935033C32.7237 0.954232 33.2541 0.978231 33.8949 1.00703C36.4483 1.12702 38.1906 1.5302 39.7194 2.12297C41.3033 2.73254 42.6376 3.5581 43.9719 4.89003C45.1928 6.08933 46.1371 7.54063 46.739 9.14262C47.3318 10.6713 47.735 12.4137 47.855 14.9695C47.8838 15.6079 47.9077 16.1383 47.9269 16.6782L47.9413 17.1438C47.9773 18.3246 47.9917 19.6949 47.9965 22.3947L47.9989 24.1851V27.3289C48.0048 29.0794 47.9864 30.8299 47.9437 32.5798L47.9293 33.0454C47.9101 33.5854 47.8862 34.1158 47.8573 34.7541C47.7374 37.31 47.3294 39.0499 46.739 40.581C46.1371 42.183 45.1928 43.6343 43.9719 44.8336C42.7727 46.0544 41.3213 46.9987 39.7194 47.6007C38.1906 48.1934 36.4483 48.5966 33.8949 48.7166L32.1861 48.7886L31.7206 48.803C30.5374 48.8366 29.1671 48.8534 26.4672 48.8582L24.6769 48.8606H21.5355C19.7842 48.8668 18.0329 48.8484 16.2821 48.8054L15.8166 48.791C15.2469 48.7694 14.6773 48.7446 14.1079 48.7166C11.5544 48.5966 9.81207 48.1934 8.28095 47.6007C6.67982 46.9984 5.22936 46.0541 4.03076 44.8336C2.80909 43.6346 1.86393 42.1832 1.2613 40.581C0.668532 39.0523 0.265352 37.31 0.145358 34.7541L0.0733613 33.0454L0.0613622 32.5798C0.017123 30.8299 -0.00287816 29.0794 0.00136504 27.3289V22.3947C-0.00527757 20.6443 0.0123234 18.8938 0.0541626 17.1438L0.0709616 16.6782C0.0901607 16.1383 0.114159 15.6079 0.142958 14.9695C0.262952 12.4137 0.666131 10.6737 1.2589 9.14262C1.86294 7.53998 2.80976 6.08862 4.03316 4.89003C5.23107 3.66981 6.68068 2.72552 8.28095 2.12297C9.81207 1.5302 11.552 1.12702 14.1079 1.00703C14.7462 0.978231 15.279 0.954232 15.8166 0.935033L16.2821 0.920634C18.0321 0.877995 19.7826 0.859594 21.5331 0.865437L26.4672 0.863037ZM24.0002 12.8624C20.8177 12.8624 17.7656 14.1266 15.5153 16.377C13.265 18.6273 12.0008 21.6794 12.0008 24.8618C12.0008 28.0443 13.265 31.0964 15.5153 33.3467C17.7656 35.597 20.8177 36.8612 24.0002 36.8612C27.1826 36.8612 30.2347 35.597 32.485 33.3467C34.7353 31.0964 35.9995 28.0443 35.9995 24.8618C35.9995 21.6794 34.7353 18.6273 32.485 16.377C30.2347 14.1266 27.1826 12.8624 24.0002 12.8624ZM24.0002 17.6622C24.9456 17.662 25.8819 17.8481 26.7554 18.2098C27.629 18.5714 28.4228 19.1016 29.0914 19.7701C29.7601 20.4385 30.2905 21.2321 30.6525 22.1055C31.0145 22.979 31.2008 23.9152 31.201 24.8606C31.2011 25.8061 31.0151 26.7423 30.6534 27.6159C30.2917 28.4895 29.7616 29.2832 29.0931 29.9519C28.4247 30.6205 27.6311 31.151 26.7576 31.513C25.8842 31.8749 24.948 32.0613 24.0026 32.0615C22.0931 32.0615 20.2618 31.3029 18.9116 29.9527C17.5614 28.6025 16.8029 26.7713 16.8029 24.8618C16.8029 22.9524 17.5614 21.1211 18.9116 19.7709C20.2618 18.4207 22.0931 17.6622 24.0026 17.6622M36.6019 9.26261C35.8063 9.26261 35.0433 9.57867 34.4807 10.1412C33.9181 10.7038 33.6021 11.4669 33.6021 12.2625C33.6021 13.0581 33.9181 13.8211 34.4807 14.3837C35.0433 14.9463 35.8063 15.2623 36.6019 15.2623C37.3975 15.2623 38.1606 14.9463 38.7231 14.3837C39.2857 13.8211 39.6018 13.0581 39.6018 12.2625C39.6018 11.4669 39.2857 10.7038 38.7231 10.1412C38.1606 9.57867 37.3975 9.26261 36.6019 9.26261Z" fill="#747A90"/>
</svg>
