<svg width="64" height="74" viewBox="0 0 64 74" fill="none" xmlns="http://www.w3.org/2000/svg">
<g clip-path="url(#clip0_848_374)">
<path d="M22.7032 22.7769C21.9677 24.323 19.8785 28.1605 15.3937 30.4671C13.4067 31.4888 11.5388 31.908 10.1511 32.0863C7.953 33.6426 7.14763 36.3107 8.04664 38.3423C8.92863 40.3349 11.0961 40.9136 11.406 40.9917C11.9781 40.7185 12.8056 40.3026 13.7693 39.7408C15.4686 38.7497 18.0669 37.2527 20.3399 34.6253C22.1073 32.5836 23.6959 30.7471 23.9206 27.9653C24.1079 25.6401 23.2549 23.763 22.7032 22.7769Z" fill="#EF6936"/>
<path d="M11.0385 52.9882C9.95564 52.9475 8.60883 52.9882 7.08835 53.2462C5.74153 53.4753 4.58712 53.8199 3.65576 54.1661C3.9997 54.4411 4.45942 54.8705 4.87317 55.4917C5.23414 56.0297 5.44697 56.5406 5.57467 56.9275C6.50433 56.5864 7.59234 56.2571 8.82337 56.0076C10.6554 55.6359 12.2917 55.5443 13.6215 55.5664L11.0368 52.9899L11.0385 52.9882Z" fill="#EF6936"/>
<path d="M4.39305 54.2761C3.71539 54.7887 2.43328 55.9004 1.5513 57.7724C1.3623 58.173 0.568856 59.9296 0.665908 62.2243C0.841283 66.3758 3.79542 69.0354 4.43051 69.5836C3.66261 66.3402 3.58258 63.6721 3.6558 61.856C3.77499 58.8281 4.34708 57.4194 5.39082 56.5572C5.699 56.3026 5.99357 56.1414 6.20299 56.0412C5.60025 55.4523 4.9975 54.8634 4.39476 54.2744L4.39305 54.2761Z" fill="#EF6936"/>
<path d="M16.7221 56.4116C14.7351 56.5898 12.5693 56.8801 10.2622 57.3315C8.64808 57.6472 7.13271 58.0104 5.72119 58.3991C6.38183 59.0797 7.08503 59.874 7.78823 60.7905C8.54422 61.7749 9.16399 62.722 9.67139 63.5876C10.6538 62.6303 11.7469 61.6408 12.9575 60.6446C14.5717 59.3156 16.1415 58.1835 17.6092 57.2229C17.3147 56.953 17.0184 56.6832 16.7239 56.4133L16.7221 56.4116Z" fill="#EF6936"/>
<path d="M7.0135 58.9863C6.8262 59.0678 6.54697 59.2138 6.27454 59.4649C4.25176 61.3353 5.62752 66.3032 7.38127 69.253C8.04702 70.3732 9.44151 72.3335 12.1436 74.0002C11.5222 71.0096 10.7543 68.8864 10.1141 67.4132C9.68158 66.4203 8.94092 64.886 9.48578 63.2922C9.66796 62.7593 9.94379 62.3655 10.1498 62.1144L7.01179 58.9863H7.0135Z" fill="#EF6936"/>
<path d="M12.1454 53.5039C11.7265 54.4001 11.3094 55.2945 10.8905 56.1907C10.7271 57.9168 10.7203 60.8038 12.0722 63.8809C12.5234 64.9094 13.2334 66.4794 14.8407 67.9662C16.3391 69.3511 17.9106 70.0079 18.8641 70.3219C17.7472 69.032 16.0752 66.7747 14.9888 63.5516C13.7902 59.9959 13.86 56.912 14.0285 55.1621C13.4003 54.6105 12.7737 54.0589 12.1454 53.5056V53.5039Z" fill="#EF6936"/>
<path d="M48.8753 55.858C49.1035 57.5688 49.2499 60.2335 48.5433 63.3649C47.915 66.1518 46.8423 68.2937 45.9961 69.6939C46.9445 69.2866 48.5467 68.4431 49.9463 66.7866C52.2636 64.0421 52.4407 60.9412 52.456 59.9416C52.3334 58.3835 52.2091 56.8254 52.0865 55.269C51.0156 55.4659 49.9463 55.6611 48.8753 55.858Z" fill="#EF6936"/>
<path d="M53.3055 59.0964C53.6085 60.8394 53.8486 63.3598 53.4536 66.3453C53.0858 69.1135 52.2975 71.3403 51.6079 72.895C52.5869 72.3366 53.8265 71.432 54.8243 69.9927C56.5405 67.513 56.5712 64.8466 56.5916 62.8863C56.6121 60.9599 56.3141 59.3849 56.0519 58.3428C55.1358 58.594 54.2215 58.8452 53.3055 59.0964Z" fill="#EF6936"/>
<path d="M47.5473 57.1836C49.2398 57.036 51.0429 56.8221 52.9363 56.5217C54.7564 56.2332 56.4693 55.8937 58.0681 55.5288C58.0528 56.4436 57.9506 57.6062 57.6254 58.9148C57.3394 60.0639 56.9563 61.0279 56.5936 61.7849C55.2281 61.6066 53.757 61.3572 52.199 61.0126C50.3465 60.6019 48.6575 60.1182 47.1421 59.6141C47.2766 58.8045 47.4128 57.9949 47.5473 57.1853V57.1836Z" fill="#EF6936"/>
<path d="M57.4771 56.2637C57.8789 56.3978 58.4748 56.6371 59.1014 57.0733C62.5578 59.4817 62.4199 64.7278 62.3876 66.0144C62.2956 69.5362 60.879 72.2246 59.9136 73.7046C59.8097 72.4554 59.4828 68.9133 58.7438 65.6189C58.531 64.6667 58.2245 63.4804 57.3664 62.2244C56.8692 61.498 56.3431 60.9769 55.9634 60.6426L57.4771 56.2637Z" fill="#EF6936"/>
<path d="M7.49365 50.5235C7.38298 47.0866 12.004 44.4084 15.3566 42.465C18.3277 40.744 23.6214 37.7619 31.2663 37.5701C40.769 37.3325 47.2902 41.5689 50.4248 43.6056C53.8404 45.8239 57.0261 47.9556 57.1061 51.0395C57.1861 54.1387 54.0821 56.4367 51.237 58.5464C43.4251 64.334 34.8709 64.7651 31.9304 64.8755C28.1402 65.0163 24.4897 65.1538 20.4135 63.2189C17.7744 61.9681 15.9593 60.2267 12.3292 56.7423C9.14013 53.6821 7.54473 52.1206 7.49365 50.5235Z" fill="#EF6936"/>
<path d="M2.84186 38.9316C5.11833 39.7412 7.3948 40.5508 9.67127 41.3604C9.06001 42.0376 8.21378 43.0186 7.27221 44.2678C6.27785 45.5848 6.15525 45.909 6.11779 46.2247C5.89134 48.1443 9.34095 49.9315 9.85686 50.1912C9.96924 50.3609 10.211 50.7852 10.0782 51.1841C9.88581 51.7662 8.94253 52.1735 7.82557 51.846C6.99637 51.6644 5.73299 51.3029 4.35553 50.5204C2.88783 49.6871 1.34351 48.8113 0.737355 47.0614C0.138014 45.3302 0.778219 43.6771 1.10683 42.9762C1.68574 41.6268 2.26295 40.2775 2.84186 38.9282V38.9316Z" fill="#EF6936"/>
<path d="M60.9998 38.9585L54.0887 40.6914C54.5348 41.3482 55.1461 42.3106 55.7829 43.5326C56.6138 45.128 56.6189 45.4997 56.6138 45.6474C56.5337 47.5788 52.844 48.8025 52.2958 48.9774C52.1579 49.1284 51.8531 49.5086 51.9195 49.9244C52.0182 50.5286 52.8849 51.0802 54.0393 50.9326C54.8873 50.8834 56.1915 50.7238 57.6745 50.1688C59.2563 49.5765 60.9181 48.9536 61.7933 47.3208C62.6582 45.7051 62.2888 43.9739 62.0742 43.2288C61.7167 41.8048 61.3591 40.3825 60.9998 38.9585Z" fill="#EF6936"/>
<path d="M22.7032 22.7769C21.9677 24.323 19.8785 28.1605 15.3937 30.4671C13.4067 31.4888 11.5388 31.908 10.1511 32.0863C7.953 33.6426 7.14763 36.3107 8.04664 38.3423C8.92863 40.3349 11.0961 40.9136 11.406 40.9917C11.9781 40.7185 12.8056 40.3026 13.7693 39.7408C15.4686 38.7497 18.0669 37.2527 20.3399 34.6253C22.1073 32.5836 23.6959 30.7471 23.9206 27.9653C24.1079 25.6401 23.2549 23.763 22.7032 22.7769Z" fill="#EF6936"/>
<path d="M11.3705 31.7553C14.2599 24.8441 14.1101 25.1395 14.3978 24.5437C15.2628 22.7446 16.4649 20.394 18.0517 17.6987C15.8979 17.7344 12.7275 18.1163 9.44985 19.8322C4.81689 22.2609 -0.0135926 27.3425 2.8741e-05 33.1182C0.00173141 34.0551 0.0102447 37.5956 2.28842 39.2996C2.92352 39.7748 3.79358 40.0702 5.53712 40.6608C7.74718 41.411 8.77389 41.4212 9.30172 41.3974C10.2041 41.3567 10.9312 41.1564 11.4062 40.9935C10.8546 40.2942 10.1241 39.1553 9.89255 37.6448C9.62693 35.9119 10.165 34.6356 11.3688 31.757L11.3705 31.7553Z" fill="#EF6936"/>
<path d="M41.2985 22.373C42.034 23.9192 44.1232 27.7567 48.608 30.0633C50.595 31.085 52.4629 31.5042 53.8505 31.6824C56.0487 33.2388 56.8541 35.9069 55.9551 37.9385C55.0731 39.9311 52.9056 40.5098 52.5957 40.5879C52.0236 40.3146 51.1961 39.8988 50.2324 39.337C48.5331 38.3458 45.9348 36.8489 43.6618 34.2215C41.8944 32.1797 40.3058 30.3433 40.0811 27.5615C39.8938 25.2363 40.7468 23.3591 41.2985 22.373Z" fill="#EF6936"/>
<path d="M52.6315 31.3515C49.742 24.4403 49.8919 24.7357 49.6041 24.1399C48.7392 22.3408 47.5371 19.9902 45.9502 17.2949C48.1041 17.3306 51.2745 17.7124 54.5521 19.4284C59.1851 21.8554 64.0155 26.9387 64.0019 32.7127C64.0002 33.6496 63.9917 37.1901 61.7135 38.8941C61.0784 39.3693 60.2084 39.6646 58.4648 40.2553C56.2548 41.0055 55.2281 41.0157 54.7002 40.9919C53.7978 40.9512 53.0708 40.7509 52.5957 40.5879C53.1474 39.8887 53.8778 38.7498 54.1094 37.2393C54.375 35.5064 53.837 34.2301 52.6332 31.3515H52.6315Z" fill="#EF6936"/>
<path d="M30.7501 35.9751C40.5157 35.9751 48.4324 28.0252 48.4324 18.2185C48.4324 8.41182 40.5157 0.461914 30.7501 0.461914C20.9845 0.461914 13.0679 8.41182 13.0679 18.2185C13.0679 28.0252 20.9845 35.9751 30.7501 35.9751Z" fill="#BE540F"/>
<path d="M30.3636 34.281C39.9562 34.281 47.7325 26.6069 47.7325 17.1405C47.7325 7.67407 39.9562 0 30.3636 0C20.771 0 12.9946 7.67407 12.9946 17.1405C12.9946 26.6069 20.771 34.281 30.3636 34.281Z" fill="#F4AC1D"/>
<path d="M33.7776 31.9201C41.9724 29.968 47.0333 21.7849 45.0813 13.6426C43.1293 5.50022 34.9036 0.482051 26.7087 2.43415C18.5139 4.38626 13.453 12.5694 15.405 20.7117C17.357 28.8541 25.5827 33.8723 33.7776 31.9201Z" fill="url(#paint0_linear_848_374)"/>
<path d="M30.3347 31.1533C38.197 31.1533 44.5707 24.8942 44.5707 17.1731C44.5707 9.45203 38.197 3.19287 30.3347 3.19287C22.4723 3.19287 16.0986 9.45203 16.0986 17.1731C16.0986 24.8942 22.4723 31.1533 30.3347 31.1533Z" fill="#F4AC1D"/>
<path d="M18.8876 25.4794C18.3087 24.1861 17.1083 21.0292 17.7502 17.0509C18.702 11.1495 22.9757 7.95531 23.8713 7.31715C25.1126 6.43288 28.5162 4.29435 33.1884 4.52857C35.8088 4.66096 37.8281 5.48752 38.9842 6.06797C38.1414 5.43151 36.844 4.59476 35.1056 3.98545C34.1214 3.64091 31.6951 2.91109 28.5775 3.29637C27.1592 3.47119 24.5422 4.00921 21.9354 5.88128C19.8003 7.41559 18.6203 9.16375 18.1299 9.96655C16.9142 11.9574 16.463 13.8244 16.2757 14.9582C15.8467 17.5736 16.2757 19.6493 16.4954 20.5251C17.0845 22.8724 18.1725 24.5442 18.8859 25.476L18.8876 25.4794Z" fill="#E38418"/>
<path d="M20.5137 27.2953L40.1965 7.09131C40.3583 7.24406 40.5694 7.44773 40.8061 7.69892C41.4003 8.32691 41.7954 8.85305 41.8958 8.98713C42.2636 9.48273 42.7557 10.2261 43.2205 11.2326C41.6813 13.8956 40.2051 15.9781 39.0983 17.4326C37.474 19.5695 33.6753 24.1605 29.7983 26.7369C28.2097 27.7926 26.5462 28.6175 26.5462 28.6175C26.1086 28.8314 25.6523 29.0435 25.179 29.2523C24.7993 29.4203 24.4247 29.5781 24.0586 29.7275C23.4899 29.4525 23.0166 29.1776 22.6437 28.9417C22.3406 28.7499 21.6783 28.3137 20.9121 27.6535C20.7452 27.5092 20.609 27.3853 20.5137 27.297V27.2953Z" fill="#F9C623"/>
<path d="M39.7574 6.69385C35.4888 10.9743 31.1419 15.1682 26.7167 19.2789C24.2716 21.5499 21.8028 23.7936 19.3101 26.0136C19.4974 26.2461 19.7102 26.4922 19.952 26.7434C20.192 26.9929 20.427 27.2136 20.6518 27.4088C24.0775 24.016 27.5135 20.635 30.9597 17.2626C34.2306 14.0633 37.5099 10.8725 40.7978 7.69183C40.6224 7.50853 40.4351 7.32183 40.2376 7.13343C40.0758 6.97899 39.9158 6.83302 39.7574 6.69555V6.69385Z" fill="#FBE045"/>
<path d="M22.7032 22.7773C21.9677 24.3235 19.8785 28.161 15.3937 30.4676C13.4067 31.4893 11.5388 31.9085 10.1511 32.0867C7.953 33.6431 7.14763 36.3112 8.04664 38.3428C8.92863 40.3354 11.0961 40.9141 11.406 40.9922C11.9781 40.719 12.8056 40.3031 13.7693 39.7413C15.4686 38.7501 18.0669 37.2532 20.3399 34.6258C22.1073 32.584 23.6959 30.7476 23.9206 27.9658C24.1079 25.6406 23.2549 23.7634 22.7032 22.7773Z" fill="#EF6936"/>
<path d="M41.298 22.373C42.0335 23.9192 44.1227 27.7567 48.6075 30.0633C50.5946 31.085 52.4624 31.5042 53.8501 31.6824C56.0482 33.2388 56.8536 35.9069 55.9546 37.9385C55.0726 39.9311 52.9051 40.5098 52.5952 40.5879C52.0231 40.3146 51.1956 39.8988 50.2319 39.337C48.5326 38.3458 45.9343 36.8489 43.6613 34.2215C41.8939 32.1797 40.3053 30.3433 40.0806 27.5615C39.8933 25.2363 40.7463 23.3591 41.298 22.373Z" fill="#EF6936"/>
</g>
<defs>
<linearGradient id="paint0_linear_848_374" x1="40.7095" y1="28.194" x2="19.8468" y2="6.09216" gradientUnits="userSpaceOnUse">
<stop offset="0.53" stop-color="#E28418"/>
<stop offset="0.54" stop-color="#BE540F"/>
</linearGradient>
<clipPath id="clip0_848_374">
<rect width="64" height="74" fill="white"/>
</clipPath>
</defs>
</svg>
