<svg width="48" height="49" viewBox="0 0 48 49" fill="none" xmlns="http://www.w3.org/2000/svg">
<path d="M24 0.862305C20.8483 0.862305 17.7274 1.4985 14.8156 2.73455C11.9038 3.97061 9.25804 5.78233 7.02944 8.06626C2.52856 12.6789 0 18.9349 0 25.4582C0 36.3295 6.888 45.553 16.416 48.8242C17.616 49.021 18 48.2585 18 47.5944V43.4377C11.352 44.9135 9.936 40.1419 9.936 40.1419C8.832 37.2888 7.272 36.5263 7.272 36.5263C5.088 35.0013 7.44 35.0505 7.44 35.0505C9.84 35.2227 11.112 37.5839 11.112 37.5839C13.2 41.3225 16.728 40.2157 18.096 39.6254C18.312 38.0266 18.936 36.9444 19.608 36.3295C14.28 35.7146 8.688 33.5994 8.688 24.2284C8.688 21.4982 9.6 19.3092 11.16 17.5629C10.92 16.948 10.08 14.39 11.4 11.0696C11.4 11.0696 13.416 10.4055 18 13.5784C19.896 13.0372 21.96 12.7667 24 12.7667C26.04 12.7667 28.104 13.0372 30 13.5784C34.584 10.4055 36.6 11.0696 36.6 11.0696C37.92 14.39 37.08 16.948 36.84 17.5629C38.4 19.3092 39.312 21.4982 39.312 24.2284C39.312 33.624 33.696 35.69 28.344 36.3049C29.208 37.0674 30 38.5677 30 40.8552V47.5944C30 48.2585 30.384 49.0456 31.608 48.8242C41.136 45.5284 48 36.3295 48 25.4582C48 22.2282 47.3792 19.0298 46.1731 16.0457C44.967 13.0616 43.1992 10.3502 40.9706 8.06626C38.742 5.78233 36.0962 3.97061 33.1844 2.73455C30.2726 1.4985 27.1517 0.862305 24 0.862305Z" fill="#747A90"/>
</svg>
