<svg viewBox="0 0 80 70" fill="none" xmlns="http://www.w3.org/2000/svg">
<path d="M33.4029 45.6667L70.0696 9M33.4029 45.6667L45.0696 69C45.2158 69.3191 45.4506 69.5896 45.7461 69.7792C46.0415 69.9688 46.3852 70.0696 46.7362 70.0696C47.0873 70.0696 47.431 69.9688 47.7264 69.7792C48.0219 69.5896 48.2567 69.3191 48.4029 69L70.0696 9M33.4029 45.6667L10.0696 34C9.75043 33.8538 9.47999 33.619 9.29039 33.3235C9.10079 33.0281 9 32.6844 9 32.3333C9 31.9823 9.10079 31.6386 9.29039 31.3432C9.47999 31.0477 9.75043 30.8129 10.0696 30.6667L70.0696 9" stroke="white" stroke-width="6" stroke-linecap="round" stroke-linejoin="round"/>
</svg>
